<?xml version="1.0" standalone="no"?>
<svg viewBox="0 0 200 200" xmlns="http://www.w3.org/2000/svg">
  <path fill="#3F3351" d="M24.3,-43.9C30.7,-38.3,34.7,-30.3,44.1,-22.6C53.6,-14.9,68.5,-7.4,67.9,-0.3C67.4,6.8,51.3,13.5,45.4,27.5C39.6,41.5,44.1,62.8,38.2,68.5C32.3,74.2,16.2,64.4,0.5,63.5C-15.1,62.6,-30.2,70.6,-44,69.4C-57.7,68.2,-70,57.9,-69.1,44.8C-68.2,31.7,-54.2,15.8,-54.7,-0.3C-55.2,-16.4,-70.3,-32.9,-68.8,-41.9C-67.3,-50.9,-49.3,-52.5,-35.1,-53.5C-20.8,-54.6,-10.4,-55.1,-0.7,-53.8C8.9,-52.5,17.8,-49.4,24.3,-43.9Z" transform="translate(100 100)" />
</svg>
