<?xml version="1.0" standalone="no"?>
<svg viewBox="0 0 200 200" xmlns="http://www.w3.org/2000/svg">
  <path fill="#FF6D6D" d="M38.8,-61C50.8,-60.4,61.2,-50.9,70.7,-39.2C80.2,-27.6,88.6,-13.8,90.2,0.9C91.9,15.7,86.7,31.4,78.6,45.3C70.5,59.3,59.4,71.5,45.8,76.6C32.2,81.8,16.1,79.8,0.6,78.8C-14.9,77.7,-29.8,77.5,-38,69.3C-46.3,61.1,-47.9,44.8,-55.8,31.9C-63.7,19.1,-77.9,9.5,-75.2,1.6C-72.5,-6.4,-52.9,-12.8,-42.8,-21.9C-32.7,-31.1,-32.2,-43,-26.7,-47.3C-21.1,-51.6,-10.6,-48.4,1.4,-50.9C13.4,-53.3,26.9,-61.6,38.8,-61Z" transform="translate(100 100)" />
</svg>
