<?xml version="1.0" standalone="no"?>
<svg viewBox="0 0 200 200" xmlns="http://www.w3.org/2000/svg">
  <path fill="#FFC107" d="M32.6,-52.5C45.2,-49.1,60.5,-46.4,65.7,-37.8C71,-29.2,66.2,-14.6,59,-4.2C51.8,6.3,42.2,12.6,35.7,19C29.2,25.5,25.8,32.2,20.4,43.8C15,55.5,7.5,72.1,-0.8,73.5C-9.2,75,-18.3,61.3,-28.5,52.4C-38.6,43.4,-49.8,39.3,-60.7,31.4C-71.6,23.5,-82.2,11.7,-81.7,0.3C-81.1,-11.1,-69.3,-22.1,-60.1,-33.1C-50.9,-44,-44.4,-54.8,-34.8,-59.9C-25.2,-65,-12.6,-64.5,-1.3,-62.2C10,-60,20,-55.9,32.6,-52.5Z" transform="translate(100 100)" />
</svg>
