<?xml version="1.0" standalone="no"?><svg xmlns="http://www.w3.org/2000/svg" viewBox="0 0 1440 320"><path fill="#FFC107" fill-opacity="1" d="M0,96L30,117.3C60,139,120,181,180,181.3C240,181,300,139,360,122.7C420,107,480,117,540,149.3C600,181,660,235,720,266.7C780,299,840,309,900,314.7C960,320,1020,320,1080,309.3C1140,299,1200,277,1260,245.3C1320,213,1380,171,1410,149.3L1440,128L1440,320L1410,320C1380,320,1320,320,1260,320C1200,320,1140,320,1080,320C1020,320,960,320,900,320C840,320,780,320,720,320C660,320,600,320,540,320C480,320,420,320,360,320C300,320,240,320,180,320C120,320,60,320,30,320L0,320Z"></path></svg>