<?xml version="1.0" standalone="no"?><svg xmlns="http://www.w3.org/2000/svg" viewBox="0 0 1440 320"><path fill="#ffffff" fill-opacity="1" d="M0,96L24,117.3C48,139,96,181,144,181.3C192,181,240,139,288,149.3C336,160,384,224,432,224C480,224,528,160,576,154.7C624,149,672,203,720,224C768,245,816,235,864,224C912,213,960,203,1008,213.3C1056,224,1104,256,1152,240C1200,224,1248,160,1296,149.3C1344,139,1392,181,1416,202.7L1440,224L1440,0L1416,0C1392,0,1344,0,1296,0C1248,0,1200,0,1152,0C1104,0,1056,0,1008,0C960,0,912,0,864,0C816,0,768,0,720,0C672,0,624,0,576,0C528,0,480,0,432,0C384,0,336,0,288,0C240,0,192,0,144,0C96,0,48,0,24,0L0,0Z"></path></svg>