<?xml version="1.0" standalone="no"?><svg xmlns="http://www.w3.org/2000/svg" viewBox="0 0 1440 320"><path fill="#FF6D6D" fill-opacity="1" d="M0,32L30,80C60,128,120,224,180,240C240,256,300,192,360,176C420,160,480,192,540,186.7C600,181,660,139,720,106.7C780,75,840,53,900,80C960,107,1020,181,1080,213.3C1140,245,1200,235,1260,208C1320,181,1380,139,1410,117.3L1440,96L1440,320L1410,320C1380,320,1320,320,1260,320C1200,320,1140,320,1080,320C1020,320,960,320,900,320C840,320,780,320,720,320C660,320,600,320,540,320C480,320,420,320,360,320C300,320,240,320,180,320C120,320,60,320,30,320L0,320Z"></path></svg>